<svg xmlns="http://www.w3.org/2000/svg" width="620" height="1298" viewBox="-10 -2 620 1298">
  <rect x="-10" y="-2" width="620" height="1298" fill="#ffffff" />
  <g id="text_1">
  </g>
  <g id="rect_2">
    <rect x="180" y="37" width="6" height="6" fill="none" stroke="none" />
  </g>
  <g id="rect_3">
    <rect x="500" y="37" width="6" height="6" fill="none" stroke="none" />
  </g>
  <g id="text_4">
  </g>
  <g id="rect_5">
    <rect x="180" y="77" width="6" height="6" fill="none" stroke="none" />
  </g>
  <g id="rect_6">
    <rect x="500" y="77" width="6" height="6" fill="none" stroke="none" />
  </g>
  <g id="text_7">
  </g>
  <g id="rect_8">
    <rect x="180" y="117" width="6" height="6" fill="none" stroke="none" />
  </g>
  <g id="rect_9">
    <rect x="500" y="117" width="6" height="6" fill="none" stroke="none" />
  </g>
  <g id="text_10">
  </g>
  <g id="rect_11">
    <rect x="180" y="157" width="6" height="6" fill="none" stroke="none" />
  </g>
  <g id="rect_12">
    <rect x="500" y="157" width="6" height="6" fill="none" stroke="none" />
  </g>
  <g id="text_13">
  </g>
  <g id="rect_14">
    <rect x="180" y="197" width="6" height="6" fill="none" stroke="none" />
  </g>
  <g id="rect_15">
    <rect x="500" y="197" width="6" height="6" fill="none" stroke="none" />
  </g>
  <g id="text_16">
  </g>
  <g id="rect_17">
    <rect x="180" y="237" width="6" height="6" fill="none" stroke="none" />
  </g>
  <g id="rect_18">
    <rect x="500" y="237" width="6" height="6" fill="none" stroke="none" />
  </g>
  <g id="text_19">
  </g>
  <g id="rect_20">
    <rect x="180" y="277" width="6" height="6" fill="none" stroke="none" />
  </g>
  <g id="rect_21">
    <rect x="500" y="277" width="6" height="6" fill="none" stroke="none" />
  </g>
  <g id="text_22">
  </g>
  <g id="rect_23">
    <rect x="180" y="317" width="6" height="6" fill="none" stroke="none" />
  </g>
  <g id="rect_24">
    <rect x="500" y="317" width="6" height="6" fill="none" stroke="none" />
  </g>
  <g id="text_25">
  </g>
  <g id="rect_26">
    <rect x="180" y="357" width="6" height="6" fill="none" stroke="none" />
  </g>
  <g id="rect_27">
    <rect x="500" y="357" width="6" height="6" fill="none" stroke="none" />
  </g>
  <g id="text_28">
  </g>
  <g id="rect_29">
    <rect x="180" y="397" width="6" height="6" fill="none" stroke="none" />
  </g>
  <g id="rect_30">
    <rect x="500" y="397" width="6" height="6" fill="none" stroke="none" />
  </g>
  <g id="text_31">
  </g>
  <g id="rect_32">
    <rect x="180" y="437" width="6" height="6" fill="none" stroke="none" />
  </g>
  <g id="rect_33">
    <rect x="500" y="437" width="6" height="6" fill="none" stroke="none" />
  </g>
  <g id="text_34">
  </g>
  <g id="text_35">
  </g>
  <g id="rect_36">
    <rect x="180" y="550" width="50" height="30" rx="4" fill="none" stroke="#000" stroke-width="1.5" />
  </g>
  <g id="rect_37">
    <rect x="470" y="550" width="50" height="30" rx="4" fill="none" stroke="#000" stroke-width="1.5" />
  </g>
  <g id="text_38">
  </g>
  <g id="rect_39">
    <rect x="180" y="610" width="50" height="30" rx="4" fill="none" stroke="#000" stroke-width="1.5" />
  </g>
  <g id="rect_40">
    <rect x="470" y="610" width="50" height="30" rx="4" fill="none" stroke="#000" stroke-width="1.5" />
  </g>
  <g id="text_41">
  </g>
  <g id="rect_42">
    <rect x="180" y="670" width="50" height="30" rx="4" fill="none" stroke="#000" stroke-width="1.5" />
  </g>
  <g id="rect_43">
    <rect x="470" y="670" width="50" height="30" rx="4" fill="none" stroke="#000" stroke-width="1.5" />
  </g>
  <g id="text_44">
  </g>
  <g id="text_45">
  </g>
  <g id="rect_46">
    <rect x="180" y="780" width="50" height="30" rx="4" fill="#e3f2fd" stroke="#1976d2" stroke-width="1.5" />
  </g>
  <g id="rect_47">
    <rect x="470" y="810" width="50" height="30" rx="4" fill="#e8f5e9" stroke="#388e3c" stroke-width="1.5" />
  </g>
  <g id="text_48">
  </g>
  <g id="rect_49">
    <rect x="180" y="850" width="50" height="30" rx="4" fill="#e3f2fd" stroke="#1976d2" stroke-width="1.5" />
  </g>
  <g id="rect_50">
    <rect x="470" y="880" width="50" height="30" rx="4" fill="#e8f5e9" stroke="#388e3c" stroke-width="1.5" />
  </g>
  <g id="text_51">
  </g>
  <g id="rect_52">
    <rect x="180" y="920" width="50" height="30" rx="4" fill="#e3f2fd" stroke="#1976d2" stroke-width="1.5" />
  </g>
  <g id="rect_53">
    <rect x="470" y="950" width="50" height="30" rx="4" fill="#e8f5e9" stroke="#388e3c" stroke-width="1.5" />
  </g>
  <g id="text_54">
  </g>
  <g id="text_55">
  </g>
  <g id="rect_56">
    <rect x="180" y="1100" width="70" height="30" rx="4" fill="#fff3e0" stroke="#e65100" stroke-width="1.5" />
  </g>
  <g id="rect_57">
    <rect x="450" y="1080" width="60" height="26" rx="4" fill="#e8eaf6" stroke="#283593" stroke-width="1.5" />
  </g>
  <g id="rect_58">
    <rect x="450" y="1116" width="60" height="26" rx="4" fill="#e8eaf6" stroke="#283593" stroke-width="1.5" />
  </g>
  <g id="rect_59">
    <rect x="450" y="1152" width="60" height="26" rx="4" fill="#e8eaf6" stroke="#283593" stroke-width="1.5" />
  </g>
  <g id="text_60">
  </g>
  <g id="rect_61">
    <rect x="180" y="1205" width="70" height="30" rx="4" fill="#fce4ec" stroke="#c62828" stroke-width="1.5" />
  </g>
  <g id="rect_62">
    <rect x="340" y="1240" width="60" height="26" rx="4" fill="#e0f7fa" stroke="#00838f" stroke-width="1.5" />
  </g>
  <g id="rect_63">
    <rect x="430" y="1240" width="60" height="26" rx="4" fill="#e0f7fa" stroke="#00838f" stroke-width="1.5" />
  </g>
  <g id="rect_64">
    <rect x="520" y="1240" width="60" height="26" rx="4" fill="#e0f7fa" stroke="#00838f" stroke-width="1.5" />
  </g>
  <g class="flowing-arrow">
    <line x1="186" y1="40" x2="493" y2="40" stroke="#000" stroke-width="1.5" />
    <polygon points="500,40 491.56,45.36 491.56,34.64" fill="#000" />
  </g>
  <g class="flowing-arrow">
    <line x1="186" y1="80" x2="493" y2="80" stroke="#000" stroke-width="1.5" />
    <polygon points="500,80 491.56,85.36 491.56,74.64" fill="white" stroke="#000" stroke-width="1.5" />
  </g>
  <g class="flowing-arrow">
    <line x1="186" y1="120" x2="493" y2="120" stroke="#000" stroke-width="1.5" />
    <polygon points="500,120 488.84,124.42 494,120 488.84,115.58" fill="#000" />
  </g>
  <g class="flowing-arrow">
    <line x1="186" y1="160" x2="498.5" y2="160" stroke="#000" stroke-width="1.5" />
    <polyline points="492.29,166.37 500,160 492.29,153.63" fill="none" stroke="#000" stroke-width="1.5" stroke-linejoin="round" />
  </g>
  <g class="flowing-arrow">
    <line x1="186" y1="200" x2="495" y2="200" stroke="#000" stroke-width="1.5" />
    <circle cx="495.5" cy="200" r="4.5" fill="#000" />
  </g>
  <g class="flowing-arrow">
    <line x1="186" y1="240" x2="495" y2="240" stroke="#000" stroke-width="1.5" />
    <circle cx="495.5" cy="240" r="4.5" fill="white" stroke="#000" stroke-width="1.5" />
  </g>
  <g class="flowing-arrow">
    <line x1="186" y1="280" x2="490" y2="280" stroke="#000" stroke-width="1.5" />
    <polygon points="500,280 495,285 490,280 495,275" fill="#000" />
  </g>
  <g class="flowing-arrow">
    <line x1="186" y1="320" x2="490" y2="320" stroke="#000" stroke-width="1.5" />
    <polygon points="500,320 495,325 490,320 495,315" fill="white" stroke="#000" stroke-width="1.5" />
  </g>
  <g class="flowing-arrow">
    <line x1="186" y1="360" x2="499" y2="360" stroke="#000" stroke-width="1.5" />
    <line x1="500" y1="366" x2="500" y2="354" stroke="#000" stroke-width="2" />
  </g>
  <g class="flowing-arrow">
    <line x1="186" y1="400" x2="497.5" y2="400" stroke="#000" stroke-width="1.5" />
    <circle cx="500" cy="400" r="2" fill="#000" />
  </g>
  <g class="flowing-arrow">
    <line x1="186" y1="440" x2="500" y2="440" stroke="#000" stroke-width="1.5" />
  </g>
  <g class="flowing-arrow">
    <line x1="230" y1="565" x2="464.4" y2="565" stroke="#000" stroke-width="1.5" />
    <polygon points="470,565 463.25,569.29 463.25,560.71" fill="#000" />
  </g>
  <g class="flowing-arrow">
    <path d="M 230 625 Q 350 590 464.62 623.43" fill="none" stroke="#000" stroke-width="1.5" />
    <polygon points="470,625 462.32,627.22 464.72,618.99" fill="#000" />
  </g>
  <g class="flowing-arrow">
    <polyline points="230,685 350,685 350,685 464.4,685" fill="none" stroke="#000" stroke-width="1.5" />
    <polygon points="470,685 463.25,689.29 463.25,680.71" fill="#000" />
  </g>
  <g class="flowing-arrow">
    <polyline points="230,795 350,795 350,825 464.4,825" fill="none" stroke="#333" stroke-width="1.5" />
    <polygon points="470,825 463.25,829.29 463.25,820.71" fill="#333" />
  </g>
  <g class="flowing-arrow">
    <path d="M 230 865 L 344 865 A 6 6 0 0 1 350 871 L 350 889 A 6 6 0 0 0 356 895 L 464.4 895" fill="none" stroke="#333" stroke-width="1.5" />
    <polygon points="470,895 463.25,899.29 463.25,890.71" fill="#333" />
  </g>
  <g class="flowing-arrow">
    <path d="M 230 935 L 338 935 A 12 12 0 0 1 350 947 L 350 953 A 12 12 0 0 0 362 965 L 464.4 965" fill="none" stroke="#333" stroke-width="1.5" />
    <polygon points="470,965 463.25,969.29 463.25,960.71" fill="#333" />
  </g>
  <g class="flowing-fork">
    <path d="M 215 1100 L 215 1083 A 8 8 0 0 1 223 1075 L 324.5 1075 A 8 8 0 0 1 332.5 1083 L 332.5 1085 A 8 8 0 0 0 340.5 1093 L 444.4 1093" fill="none" stroke="#333" stroke-width="1.5" />
    <polygon points="450,1093 443.25,1097.29 443.25,1088.71" fill="#333" />
    <path d="M 215 1100 L 215 1083 A 8 8 0 0 1 223 1075 L 324.5 1075 A 8 8 0 0 1 332.5 1083 L 332.5 1121 A 8 8 0 0 0 340.5 1129 L 444.4 1129" fill="none" stroke="#333" stroke-width="1.5" />
    <polygon points="450,1129 443.25,1133.29 443.25,1124.71" fill="#333" />
    <path d="M 215 1100 L 215 1083 A 8 8 0 0 1 223 1075 L 324.5 1075 A 8 8 0 0 1 332.5 1083 L 332.5 1157 A 8 8 0 0 0 340.5 1165 L 444.4 1165" fill="none" stroke="#333" stroke-width="1.5" />
    <polygon points="450,1165 443.25,1169.29 443.25,1160.71" fill="#333" />
  </g>
  <g class="flowing-fork">
    <path d="M 250 1220 L 270 1220 A 5 5 0 0 1 275 1225 L 275 1225 A 5 5 0 0 0 280 1230 L 367.8 1230 A 2.2 2.2 0 0 1 370 1232.2 L 370 1234.4" fill="none" stroke="#333" stroke-width="1.5" />
    <polygon points="370,1240 374.29,1246.75 365.71,1246.75" fill="#333" />
    <path d="M 250 1220 L 270 1220 A 5 5 0 0 1 275 1225 L 275 1225 A 5 5 0 0 0 280 1230 L 457.8 1230 A 2.2 2.2 0 0 1 460 1232.2 L 460 1234.4" fill="none" stroke="#333" stroke-width="1.5" />
    <polygon points="460,1240 464.29,1246.75 455.71,1246.75" fill="#333" />
    <path d="M 250 1220 L 270 1220 A 5 5 0 0 1 275 1225 L 275 1225 A 5 5 0 0 0 280 1230 L 547.8 1230 A 2.2 2.2 0 0 1 550 1232.2 L 550 1234.4" fill="none" stroke="#333" stroke-width="1.5" />
    <polygon points="550,1240 554.29,1246.75 545.71,1246.75" fill="#333" />
  </g>
  <text x="80" y="40" text-anchor="middle" dominant-baseline="middle" font-family="Inter, system-ui, -apple-system, sans-serif" font-size="13" font-weight="bold" fill="#000">triangle</text>
  <text x="80" y="80" text-anchor="middle" dominant-baseline="middle" font-family="Inter, system-ui, -apple-system, sans-serif" font-size="13" font-weight="bold" fill="#000">triangle-open</text>
  <text x="80" y="120" text-anchor="middle" dominant-baseline="middle" font-family="Inter, system-ui, -apple-system, sans-serif" font-size="13" font-weight="bold" fill="#000">stealth</text>
  <text x="80" y="160" text-anchor="middle" dominant-baseline="middle" font-family="Inter, system-ui, -apple-system, sans-serif" font-size="13" font-weight="bold" fill="#000">vee</text>
  <text x="80" y="200" text-anchor="middle" dominant-baseline="middle" font-family="Inter, system-ui, -apple-system, sans-serif" font-size="13" font-weight="bold" fill="#000">circle</text>
  <text x="80" y="240" text-anchor="middle" dominant-baseline="middle" font-family="Inter, system-ui, -apple-system, sans-serif" font-size="13" font-weight="bold" fill="#000">circle-open</text>
  <text x="80" y="280" text-anchor="middle" dominant-baseline="middle" font-family="Inter, system-ui, -apple-system, sans-serif" font-size="13" font-weight="bold" fill="#000">diamond</text>
  <text x="80" y="320" text-anchor="middle" dominant-baseline="middle" font-family="Inter, system-ui, -apple-system, sans-serif" font-size="13" font-weight="bold" fill="#000">diamond-open</text>
  <text x="80" y="360" text-anchor="middle" dominant-baseline="middle" font-family="Inter, system-ui, -apple-system, sans-serif" font-size="13" font-weight="bold" fill="#000">bar</text>
  <text x="80" y="400" text-anchor="middle" dominant-baseline="middle" font-family="Inter, system-ui, -apple-system, sans-serif" font-size="13" font-weight="bold" fill="#000">dot</text>
  <text x="80" y="440" text-anchor="middle" dominant-baseline="middle" font-family="Inter, system-ui, -apple-system, sans-serif" font-size="13" font-weight="bold" fill="#000">none</text>
  <text x="80" y="510" text-anchor="middle" dominant-baseline="middle" font-family="Inter, system-ui, -apple-system, sans-serif" font-size="15" font-weight="bold" fill="#000">Path Types</text>
  <text x="80" y="565" text-anchor="middle" dominant-baseline="middle" font-family="Inter, system-ui, -apple-system, sans-serif" font-size="13" font-weight="bold" fill="#000">straight</text>
  <text x="205" y="565" text-anchor="middle" dominant-baseline="middle" font-family="Inter, system-ui, -apple-system, sans-serif" font-size="11" font-weight="normal" fill="#000">A</text>
  <text x="495" y="565" text-anchor="middle" dominant-baseline="middle" font-family="Inter, system-ui, -apple-system, sans-serif" font-size="11" font-weight="normal" fill="#000">B</text>
  <text x="80" y="625" text-anchor="middle" dominant-baseline="middle" font-family="Inter, system-ui, -apple-system, sans-serif" font-size="13" font-weight="bold" fill="#000">curve</text>
  <text x="205" y="625" text-anchor="middle" dominant-baseline="middle" font-family="Inter, system-ui, -apple-system, sans-serif" font-size="11" font-weight="normal" fill="#000">A</text>
  <text x="495" y="625" text-anchor="middle" dominant-baseline="middle" font-family="Inter, system-ui, -apple-system, sans-serif" font-size="11" font-weight="normal" fill="#000">B</text>
  <text x="80" y="685" text-anchor="middle" dominant-baseline="middle" font-family="Inter, system-ui, -apple-system, sans-serif" font-size="13" font-weight="bold" fill="#000">polyline</text>
  <text x="205" y="685" text-anchor="middle" dominant-baseline="middle" font-family="Inter, system-ui, -apple-system, sans-serif" font-size="11" font-weight="normal" fill="#000">A</text>
  <text x="495" y="685" text-anchor="middle" dominant-baseline="middle" font-family="Inter, system-ui, -apple-system, sans-serif" font-size="11" font-weight="normal" fill="#000">B</text>
  <text x="80" y="740" text-anchor="middle" dominant-baseline="middle" font-family="Inter, system-ui, -apple-system, sans-serif" font-size="15" font-weight="bold" fill="#000">Polyline Corner Radius</text>
  <text x="80" y="795" text-anchor="middle" dominant-baseline="middle" font-family="Inter, system-ui, -apple-system, sans-serif" font-size="13" font-weight="bold" fill="#000">r = 0</text>
  <text x="205" y="795" text-anchor="middle" dominant-baseline="middle" font-family="Inter, system-ui, -apple-system, sans-serif" font-size="11" font-weight="normal" fill="#333">A</text>
  <text x="495" y="825" text-anchor="middle" dominant-baseline="middle" font-family="Inter, system-ui, -apple-system, sans-serif" font-size="11" font-weight="normal" fill="#333">B</text>
  <text x="80" y="865" text-anchor="middle" dominant-baseline="middle" font-family="Inter, system-ui, -apple-system, sans-serif" font-size="13" font-weight="bold" fill="#000">r = 6</text>
  <text x="205" y="865" text-anchor="middle" dominant-baseline="middle" font-family="Inter, system-ui, -apple-system, sans-serif" font-size="11" font-weight="normal" fill="#333">A</text>
  <text x="495" y="895" text-anchor="middle" dominant-baseline="middle" font-family="Inter, system-ui, -apple-system, sans-serif" font-size="11" font-weight="normal" fill="#333">B</text>
  <text x="80" y="935" text-anchor="middle" dominant-baseline="middle" font-family="Inter, system-ui, -apple-system, sans-serif" font-size="13" font-weight="bold" fill="#000">r = 12</text>
  <text x="205" y="935" text-anchor="middle" dominant-baseline="middle" font-family="Inter, system-ui, -apple-system, sans-serif" font-size="11" font-weight="normal" fill="#333">A</text>
  <text x="495" y="965" text-anchor="middle" dominant-baseline="middle" font-family="Inter, system-ui, -apple-system, sans-serif" font-size="11" font-weight="normal" fill="#333">B</text>
  <text x="80" y="1020" text-anchor="middle" dominant-baseline="middle" font-family="Inter, system-ui, -apple-system, sans-serif" font-size="15" font-weight="bold" fill="#000">Fork (one source → N targets)</text>
  <text x="80" y="1120" text-anchor="middle" dominant-baseline="middle" font-family="Inter, system-ui, -apple-system, sans-serif" font-size="13" font-weight="bold" fill="#000">top → left</text>
  <text x="215" y="1115" text-anchor="middle" dominant-baseline="middle" font-family="Inter, system-ui, -apple-system, sans-serif" font-size="11" font-weight="normal" fill="#333">Source</text>
  <text x="480" y="1093" text-anchor="middle" dominant-baseline="middle" font-family="Inter, system-ui, -apple-system, sans-serif" font-size="11" font-weight="normal" fill="#333">T1</text>
  <text x="480" y="1129" text-anchor="middle" dominant-baseline="middle" font-family="Inter, system-ui, -apple-system, sans-serif" font-size="11" font-weight="normal" fill="#333">T2</text>
  <text x="480" y="1165" text-anchor="middle" dominant-baseline="middle" font-family="Inter, system-ui, -apple-system, sans-serif" font-size="11" font-weight="normal" fill="#333">T3</text>
  <text x="80" y="1220" text-anchor="middle" dominant-baseline="middle" font-family="Inter, system-ui, -apple-system, sans-serif" font-size="13" font-weight="bold" fill="#000">right → top</text>
  <text x="215" y="1220" text-anchor="middle" dominant-baseline="middle" font-family="Inter, system-ui, -apple-system, sans-serif" font-size="11" font-weight="normal" fill="#333">Source</text>
  <text x="370" y="1253" text-anchor="middle" dominant-baseline="middle" font-family="Inter, system-ui, -apple-system, sans-serif" font-size="11" font-weight="normal" fill="#333">T1</text>
  <text x="460" y="1253" text-anchor="middle" dominant-baseline="middle" font-family="Inter, system-ui, -apple-system, sans-serif" font-size="11" font-weight="normal" fill="#333">T2</text>
  <text x="550" y="1253" text-anchor="middle" dominant-baseline="middle" font-family="Inter, system-ui, -apple-system, sans-serif" font-size="11" font-weight="normal" fill="#333">T3</text>
</svg>