<svg xmlns="http://www.w3.org/2000/svg" width="900" height="400" viewBox="0 0 900 400">
  <defs>
    <linearGradient id="cylGrad_cylinder_1" x1="0" y1="0" x2="1" y2="0">
      <stop offset="0%" stop-color="rgba(0,0,0,0.1)" />
      <stop offset="50%" stop-color="rgba(0,0,0,0)" />
      <stop offset="100%" stop-color="rgba(0,0,0,0.1)" />
    </linearGradient>
    <filter id="shadow_rect_2" x="-20%" y="-20%" width="140%" height="140%">
      <feDropShadow dx="0" dy="2" stdDeviation="4" flood-color="rgba(0,0,0,0.15)" />
    </filter>
    <filter id="shadow_rect_6" x="-20%" y="-20%" width="140%" height="140%">
      <feDropShadow dx="0" dy="2" stdDeviation="4" flood-color="rgba(0,0,0,0.15)" />
    </filter>
  </defs>
  <rect x="0" y="0" width="900" height="400" fill="#fff" />
  <g id="cylinder_1">
    <path d="M 115 177.6 L 115 222.4 A 50 12.6 0 0 0 215 222.4 L 215 177.6 A 50 12.6 0 0 1 115 177.6" fill="#e8eaf6" stroke="#283593" stroke-width="1.5" />
    <path d="M 115 177.6 L 115 222.4 A 50 12.6 0 0 0 215 222.4 L 215 177.6 A 50 12.6 0 0 1 115 177.6" fill="url(#cylGrad_cylinder_1)" stroke="none" />
    <ellipse cx="165" cy="177.6" rx="50" ry="12.6" fill="#e8eaf6" stroke="#283593" stroke-width="1.5" />
  </g>
  <g id="rect_2">
    <rect x="255" y="110" width="180" height="180" rx="10" fill="#e3f2fd" stroke="#1565c0" stroke-width="1.5" filter="url(#shadow_rect_2)" />
    <g id="rect_3">
      <rect x="286.5" y="158.4" width="117" height="28.6" rx="4" fill="#bbdefb" stroke="#1565c0" stroke-width="1.5" />
    </g>
    <g id="rect_4">
      <rect x="286.5" y="192.2" width="117" height="28.6" rx="4" fill="#bbdefb" stroke="#1565c0" stroke-width="1.5" />
    </g>
    <g id="rect_5">
      <rect x="286.5" y="226" width="117" height="28.6" rx="4" fill="#90caf9" stroke="#0d47a1" stroke-width="1.5" />
    </g>
  </g>
  <g id="rect_6">
    <rect x="475" y="110" width="180" height="180" rx="10" fill="#fff3e0" stroke="#e65100" stroke-width="1.5" filter="url(#shadow_rect_6)" />
    <g id="rect_7">
      <rect x="506.5" y="158.4" width="117" height="41.6" rx="4" fill="#ffe0b2" stroke="#e65100" stroke-width="1.5" />
    </g>
    <g id="rect_8">
      <rect x="506.5" y="206.5" width="117" height="41.6" rx="4" fill="#ffe0b2" stroke="#e65100" stroke-width="1.5" />
    </g>
  </g>
  <g id="rect_9">
    <rect x="695" y="175" width="90" height="50" rx="25" fill="#c8e6c9" stroke="#2e7d32" stroke-width="1.5" />
  </g>
  <g class="flowing-arrow">
    <line x1="215" y1="200" x2="249.4" y2="200" stroke="#283593" stroke-width="1.5" />
    <polygon points="255,200 246.07,203.53 250.2,200 246.07,196.47" fill="#283593" />
  </g>
  <g class="flowing-arrow">
    <line x1="435" y1="200" x2="469.4" y2="200" stroke="#555" stroke-width="1.5" />
    <polygon points="475,200 466.07,203.53 470.2,200 466.07,196.47" fill="#555" />
  </g>
  <g class="flowing-arrow">
    <line x1="655" y1="200" x2="689.4" y2="200" stroke="#555" stroke-width="1.5" />
    <polygon points="695,200 686.07,203.53 690.2,200 686.07,196.47" fill="#555" />
  </g>
  <g class="flowing-arrow">
    <path d="M 740 225 Q 555.49 336.44 350.47 291.21" fill="none" stroke="#2e7d32" stroke-width="1.5" stroke-dasharray="6 3" />
    <polygon points="345,290 354.48,288.47 349.69,291.03 352.95,295.37" fill="#2e7d32" />
  </g>
  <text x="165" y="200" text-anchor="middle" dominant-baseline="middle" font-family="Inter, system-ui, -apple-system, sans-serif" font-size="12" font-weight="bold" fill="#283593">Price Data</text>
  <text x="345" y="132" text-anchor="middle" dominant-baseline="middle" font-family="Inter, system-ui, -apple-system, sans-serif" font-size="14" font-weight="bold" fill="#1565c0">Environment</text>
  <text x="345" y="172.70000000000002" text-anchor="middle" dominant-baseline="middle" font-family="Inter, system-ui, -apple-system, sans-serif" font-size="11" font-weight="normal" fill="#1565c0">State-Space</text>
  <text x="345" y="206.5" text-anchor="middle" dominant-baseline="middle" font-family="Inter, system-ui, -apple-system, sans-serif" font-size="11" font-weight="normal" fill="#1565c0">Gas Balance</text>
  <text x="345" y="240.3" text-anchor="middle" dominant-baseline="middle" font-family="Inter, system-ui, -apple-system, sans-serif" font-size="11" font-weight="bold" fill="#0d47a1">Reward</text>
  <text x="565" y="132" text-anchor="middle" dominant-baseline="middle" font-family="Inter, system-ui, -apple-system, sans-serif" font-size="14" font-weight="bold" fill="#e65100">PPO Agent</text>
  <text x="565" y="179.20000000000002" text-anchor="middle" dominant-baseline="middle" font-family="Inter, system-ui, -apple-system, sans-serif" font-size="12" font-weight="normal" fill="#e65100">Actor</text>
  <text x="565" y="227.3" text-anchor="middle" dominant-baseline="middle" font-family="Inter, system-ui, -apple-system, sans-serif" font-size="12" font-weight="normal" fill="#e65100">Critic</text>
  <text x="740" y="200" text-anchor="middle" dominant-baseline="middle" font-family="Inter, system-ui, -apple-system, sans-serif" font-size="12" font-weight="bold" fill="#2e7d32">Action</text>
  <text x="455" y="192" text-anchor="middle" font-family="Inter, system-ui, -apple-system, sans-serif" font-size="11" fill="#555">obs, reward</text>
  <text x="551.43" y="303.77" text-anchor="middle" font-family="Inter, system-ui, -apple-system, sans-serif" font-size="11" fill="#2e7d32">feed rate, power</text>
</svg>