<svg xmlns="http://www.w3.org/2000/svg" width="800" height="350" viewBox="0 0 800 350">
  <rect x="0" y="0" width="800" height="350" fill="#fff" />
  <g id="rect_1">
    <rect x="70" y="150" width="100" height="50" rx="6" fill="none" stroke="#000" stroke-width="1.5" />
  </g>
  <g id="rect_2">
    <rect x="200" y="115" width="120" height="120" rx="8" fill="none" stroke="#000" stroke-width="1.5" />
    <g id="rect_3">
      <rect x="224" y="152.6" width="72" height="22.4" rx="4" fill="none" stroke="#000" stroke-width="1.5" />
    </g>
    <g id="rect_4">
      <rect x="224" y="179.8" width="72" height="22.4" rx="4" fill="none" stroke="#000" stroke-width="1.5" />
    </g>
  </g>
  <g id="rect_5">
    <rect x="350" y="115" width="120" height="120" rx="8" fill="none" stroke="#000" stroke-width="1.5" stroke-dasharray="6 3" />
    <g id="rect_6">
      <rect x="374" y="152.6" width="72" height="22.4" rx="4" fill="none" stroke="#000" stroke-width="1.5" />
    </g>
    <g id="rect_7">
      <rect x="374" y="179.8" width="72" height="22.4" rx="4" fill="none" stroke="#000" stroke-width="1.5" />
    </g>
  </g>
  <g id="rect_8">
    <rect x="500" y="150" width="100" height="50" rx="6" fill="none" stroke="#000" stroke-width="1.5" />
  </g>
  <g id="rect_9">
    <rect x="630" y="150" width="100" height="50" rx="25" fill="none" stroke="#000" stroke-width="1.5" />
  </g>
  <g class="flowing-arrow">
    <line x1="170" y1="175" x2="194.4" y2="175" stroke="#000" stroke-width="1.5" />
    <polygon points="200,175 191.07,178.53 195.2,175 191.07,171.47" fill="#000" />
  </g>
  <g class="flowing-arrow">
    <line x1="320" y1="175" x2="344.4" y2="175" stroke="#000" stroke-width="1.5" />
    <polygon points="350,175 341.07,178.53 345.2,175 341.07,171.47" fill="#000" />
  </g>
  <g class="flowing-arrow">
    <line x1="470" y1="175" x2="494.4" y2="175" stroke="#000" stroke-width="1.5" />
    <polygon points="500,175 491.07,178.53 495.2,175 491.07,171.47" fill="#000" />
  </g>
  <g class="flowing-arrow">
    <line x1="600" y1="175" x2="624.4" y2="175" stroke="#000" stroke-width="1.5" />
    <polygon points="630,175 621.07,178.53 625.2,175 621.07,171.47" fill="#000" />
  </g>
  <g class="flowing-arrow">
    <path d="M 550 150 Q 414.59 53.08 261.11 114.55" fill="none" stroke="#000" stroke-width="1.5" stroke-dasharray="6 3" />
    <polyline points="263.83,107.97 260,115 267.62,117.44" fill="none" stroke="#000" stroke-width="1.5" stroke-linejoin="round" />
  </g>
  <text x="120" y="175" text-anchor="middle" dominant-baseline="middle" font-family="Inter, system-ui, -apple-system, sans-serif" font-size="14" font-weight="bold" fill="#000">Raw Data</text>
  <text x="260" y="137" text-anchor="middle" dominant-baseline="middle" font-family="Inter, system-ui, -apple-system, sans-serif" font-size="14" font-weight="bold" fill="#000">Preprocess</text>
  <text x="260" y="163.79999999999998" text-anchor="middle" dominant-baseline="middle" font-family="Inter, system-ui, -apple-system, sans-serif" font-size="11" font-weight="normal" fill="#000">Clean</text>
  <text x="260" y="191" text-anchor="middle" dominant-baseline="middle" font-family="Inter, system-ui, -apple-system, sans-serif" font-size="11" font-weight="normal" fill="#000">Tokenize</text>
  <text x="410" y="137" text-anchor="middle" dominant-baseline="middle" font-family="Inter, system-ui, -apple-system, sans-serif" font-size="14" font-weight="bold" fill="#000">Model</text>
  <text x="410" y="163.79999999999998" text-anchor="middle" dominant-baseline="middle" font-family="Inter, system-ui, -apple-system, sans-serif" font-size="11" font-weight="normal" fill="#000">Encoder</text>
  <text x="410" y="191" text-anchor="middle" dominant-baseline="middle" font-family="Inter, system-ui, -apple-system, sans-serif" font-size="11" font-weight="normal" fill="#000">Decoder</text>
  <text x="550" y="175" text-anchor="middle" dominant-baseline="middle" font-family="Inter, system-ui, -apple-system, sans-serif" font-size="14" font-weight="bold" fill="#000">Evaluate</text>
  <text x="680" y="175" text-anchor="middle" dominant-baseline="middle" font-family="Inter, system-ui, -apple-system, sans-serif" font-size="14" font-weight="bold" fill="#000">Deploy</text>
  <text x="409.79" y="84.79" text-anchor="middle" font-family="Inter, system-ui, -apple-system, sans-serif" font-size="11" fill="#000">feedback</text>
</svg>